<svg xmlns="http://www.w3.org/2000/svg" xmlns:xlink="http://www.w3.org/1999/xlink" xml:space="preserve" version="1.1" style="shape-rendering:geometricPrecision;text-rendering:geometricPrecision;image-rendering:optimizeQuality;" viewBox="0 0 441 495" x="0px" y="0px" fill-rule="evenodd" clip-rule="evenodd"><defs><style type="text/css">
   
    .fil0 {fill:black;fill-rule:nonzero}
   
  </style></defs><g><path class="fil0" d="M339 299l-251 0c-49,0 -88,-39 -88,-87 0,-41 28,-76 68,-86 0,-69 57,-126 126,-126 59,0 110,41 124,98 7,-2 14,-2 21,-2 57,0 102,45 102,101 0,56 -46,103 -102,102zm-40 -195c-11,-49 -54,-84 -105,-84 -62,0 -109,52 -106,114 0,5 -3,10 -9,11 -34,4 -59,33 -59,67 0,37 30,67 68,67l251 0c46,0 82,-36 82,-82 0,-45 -36,-81 -82,-81 -32,0 -61,18 -74,47 -2,5 -8,7 -13,5 -5,-2 -8,-8 -5,-13 10,-23 29,-41 52,-51z"/><path class="fil0" d="M101 335c0,-3 3,-6 7,-6 4,0 7,3 7,6l0 11 7 -8c3,-2 7,-2 10,0 3,3 3,8 0,10l-7 7 10 0c4,0 7,3 7,7 0,4 -3,7 -7,7l-10 0 7 7c3,3 3,7 0,10 -3,3 -7,3 -10,0l-7 -7 0 10c0,4 -3,7 -7,7 -4,0 -7,-3 -7,-7l0 -10 -7 7c-3,3 -7,3 -10,0 -2,-3 -2,-7 0,-10l7 -7 -10 0c-4,0 -7,-3 -7,-7 0,-4 3,-7 7,-7l10 0 -7 -7c-2,-2 -2,-7 0,-10 3,-2 7,-2 10,0l7 8 0 -11z"/><path class="fil0" d="M212 335c0,-3 3,-6 7,-6 3,0 6,3 6,6l0 11 8 -8c2,-2 7,-2 9,0 3,3 3,8 0,10l-7 7 10 0c4,0 7,3 7,7 0,4 -3,7 -7,7l-10 0 7 7c3,3 3,7 0,10 -2,3 -7,3 -9,0l-8 -7 0 10c0,4 -3,7 -6,7 -4,0 -7,-3 -7,-7l0 -10 -8 7c-2,3 -7,3 -9,0 -3,-3 -3,-7 0,-10l7 -7 -10 0c-4,0 -7,-3 -7,-7 0,-4 3,-7 7,-7l10 0 -7 -7c-3,-2 -3,-7 0,-10 2,-2 7,-2 9,0l8 8 0 -11z"/><path class="fil0" d="M322 335c0,-3 3,-6 7,-6 4,0 7,3 7,6l0 11 7 -8c3,-2 7,-2 10,0 3,3 3,8 0,10l-7 7 10 0c4,0 7,3 7,7 0,4 -3,7 -7,7l-10 0 7 7c3,3 3,7 0,10 -3,3 -7,3 -10,0l-7 -7 0 10c0,4 -3,7 -7,7 -4,0 -7,-3 -7,-7l0 -10 -7 7c-3,3 -7,3 -10,0 -3,-3 -3,-7 0,-10l7 -7 -10 0c-4,0 -7,-3 -7,-7 0,-4 3,-7 7,-7l10 0 -7 -7c-3,-2 -3,-7 0,-10 3,-2 7,-2 10,0l7 8 0 -11z"/></g></svg>